<?xml version="1.0" encoding="UTF-8" standalone="no"?>
<svg
   width="16.667088"
   height="16.670197"
   viewBox="0 0 16.667088 16.670197"
   fill="none"
   version="1.1"
   id="svg4"
   xmlns="http://www.w3.org/2000/svg"
   xmlns:svg="http://www.w3.org/2000/svg">
  <defs
     id="defs4" />
  <g
     id="g4"
     transform="translate(-1.6660125,-1.6665031)">
    <path
       d="m 18.3331,10.2015 c 0,-0.56296 -0.0556,-1.14404 -0.1482,-1.6888 h -8.0208 v 3.2141 h 4.5939 c -0.1853,1.035 -0.7965,1.943 -1.7042,2.5241 l 2.7415,2.0882 c 1.6116,-1.4708 2.5378,-3.6136 2.5378,-6.1376 z"
       fill="#4280ef"
       id="path1" />
    <path
       d="m 10.1631,18.3367 c 2.297,0 4.2235,-0.7445 5.6313,-2.0157 l -2.7415,-2.0701 c -0.7595,0.5085 -1.7413,0.799 -2.8898,0.799 -2.22282,0 -4.09373,-1.4708 -4.77912,-3.432 l -2.81562,2.1246 c 1.44486,2.8146 4.37163,4.5942 7.59474,4.5942 z"
       fill="#34a353"
       id="path2" />
    <path
       d="m 5.38468,11.5997 c -0.35195,-1.0351 -0.35195,-2.16093 0,-3.19598 L 2.56905,6.26099 c -1.20405,2.36064 -1.20405,5.13891 0,7.48141 z"
       fill="#f6b704"
       id="path3" />
    <path
       d="m 10.1631,4.97172 c 1.2041,-0.01816 2.3896,0.43581 3.2602,1.25295 L 15.85,3.82772 c -1.5375,-1.41639 -3.5751,-2.17906 -5.6869,-2.1609 -3.22311,0 -6.14988,1.77956 -7.59474,4.59417 L 5.38399,8.40373 C 6.06937,6.42442 7.94028,4.97172 10.1631,4.97172 Z"
       fill="#e54335"
       id="path4" />
  </g>
</svg>
