<?xml version="1.0" encoding="UTF-8"?>
<svg id="Layer_2" xmlns="http://www.w3.org/2000/svg" viewBox="0 0 17 17">
  <defs>
    <style>
      .cls-1 {
        fill: #0a66c2;
      }
    </style>
  </defs>
  <g id="Layer_1-2" data-name="Layer_1">
    <path class="cls-1" d="M14.48,14.49h-2.52v-3.94c0-.94-.02-2.15-1.31-2.15s-1.51,1.02-1.51,2.08v4.01h-2.52V6.37h2.42v1.11h.03c.49-.84,1.41-1.35,2.39-1.31,2.55,0,3.02,1.68,3.02,3.86v4.45ZM3.78,5.26c-.81,0-1.46-.65-1.46-1.46,0-.81.65-1.46,1.46-1.46.81,0,1.46.65,1.46,1.46s-.65,1.46-1.46,1.46h0M5.04,14.49h-2.52V6.37h2.52v8.11ZM15.74,0H1.25C.57,0,0,.54,0,1.23v14.55c0,.68.57,1.23,1.25,1.23h14.49c.69,0,1.25-.54,1.26-1.23V1.23C16.99.54,16.43,0,15.74,0"/>
  </g>
</svg>