<?xml version="1.0" encoding="UTF-8" standalone="no"?>
<svg
   version="1.0"
   width="314.60208pt"
   height="90.442451pt"
   viewBox="0 0 314.60208 90.442451"
   preserveAspectRatio="xMidYMid"
   id="svg10"
   sodipodi:docname="logo-dark.svg"
   inkscape:version="1.3.2 (091e20e, 2023-11-25)"
   xmlns:inkscape="http://www.inkscape.org/namespaces/inkscape"
   xmlns:sodipodi="http://sodipodi.sourceforge.net/DTD/sodipodi-0.dtd"
   xmlns="http://www.w3.org/2000/svg"
   xmlns:svg="http://www.w3.org/2000/svg">
  <sodipodi:namedview
     id="namedview1"
     pagecolor="#ffffff"
     bordercolor="#000000"
     borderopacity="0.25"
     inkscape:showpageshadow="2"
     inkscape:pageopacity="0.0"
     inkscape:pagecheckerboard="0"
     inkscape:deskcolor="#d1d1d1"
     inkscape:document-units="pt"
     inkscape:zoom="1.9570456"
     inkscape:cx="209.75495"
     inkscape:cy="60.294967"
     inkscape:window-width="1712"
     inkscape:window-height="1069"
     inkscape:window-x="0"
     inkscape:window-y="43"
     inkscape:window-maximized="0"
     inkscape:current-layer="svg10" />
  <defs
     id="defs10" />
  <g
     id="g9"
     transform="matrix(0.14265371,0,0,0.14265371,-8.0642142,-47.779007)">
    <g
       id="Layer_1"
       style="fill:#b3b3b3">
      <g
         id="g10"
         style="fill:#e6e6e6">
        <rect
           x="941.9751"
           y="447.92038"
           width="64.699997"
           height="64.699997"
           id="rect2"
           style="fill:#e6e6e6" />
        <path
           d="m 941.97509,777.90037 c 0,10.35 -3.09,18.12 -9.27,23.29 -6.19,5.18 -15.45,7.76 -27.82,7.76 -4.89,0 -9.77,-0.43 -14.67,-1.29 v 55.21 c 2.88,0.57 6.4,1.08 10.57,1.51 4.17,0.43 8.41,0.65 12.73,0.65 19.55,0 36.3,-3.38 50.25,-10.14 13.94,-6.76 24.59,-16.68 31.92,-29.76 7.33001,-13.09 11.00001,-28.83 11.00001,-47.23 v -244.14 h -64.70001 v 244.14 z"
           id="path3"
           style="fill:#e6e6e6" />
        <path
           d="m 1249.3151,562.23037 c -9.92,-10.64 -22.07,-18.91 -36.45,-24.8 -14.38,-5.89 -30.92,-8.84 -49.6,-8.84 -22.43,0 -42.56,5.32 -60.39,15.96 -17.83,10.64 -31.99,25.17 -42.49,43.57 -10.5,18.41 -15.74,39.4 -15.74,62.98 0,23.58 5.03,43.42 15.1,62.11 10.06,18.7 24.3,33.58 42.7,44.64 18.4,11.07 40.12,16.61 65.13,16.61 16.1,0 30.91,-2.37 44.43,-7.12 13.51,-4.74 25.23,-11.43 35.15,-20.06 9.92,-8.63 17.18,-18.69 21.78,-30.19 l -51.76,-24.59 c -4.6,8.05 -11,14.38 -19.2,18.98 -8.2,4.6 -18.05,6.9 -29.55,6.9 -12.66,0 -23.44,-2.8 -32.35,-8.41 -8.92,-5.61 -15.53,-13.44 -19.84,-23.51 -2.22,-5.19 -3.72,-10.8 -4.49,-16.82 h 164.95 c 1.15,-3.16 1.94,-6.97 2.37,-11.43 0.43,-4.46 0.65,-8.98 0.65,-13.59 0,-16.39 -2.59,-31.55 -7.76,-45.51 -5.18,-13.94 -12.72,-26.24 -22.64,-36.88 z m -114.96,26.31 c 8.05,-5.46 17.69,-8.2 28.9,-8.2 11.21,0 21.2,2.8 29.12,8.41 7.91,5.61 13.44,13.23 16.61,22.86 1.1,3.36 1.83,6.88 2.2,10.57 h -97.74 c 0.74,-3.34 1.67,-6.51 2.8,-9.49 4.02,-10.64 10.06,-18.69 18.12,-24.16 z"
           id="path4"
           style="fill:#e6e6e6" />
        <path
           d="m 1406.1051,480.27037 h -64.7 v 17.25 c 0,12.08 -3.23,21.14 -9.71,27.17 -6.47,6.04 -15.74,9.06 -27.82,9.06 h -2.16 v 56.07 h 39.68 v 94.46 c 0,27.61 7.83,49.11 23.51,64.49 15.67,15.39 37.74,23.08 66.21,23.08 4.89,0 10.06,-0.29 15.53,-0.86 5.46,-0.58 10.35,-1.15 14.67,-1.73 v -54.78 c -2.88,0.29 -5.61,0.58 -8.2,0.86 -2.59,0.29 -4.89,0.43 -6.9,0.43 -8.92,0 -16.39,-1.29 -22.43,-3.88 -6.04,-2.59 -10.5,-6.54 -13.37,-11.86 -2.88,-5.32 -4.31,-12 -4.31,-20.06 v -90.15 h 55.21 v -56.07 h -55.21 v -53.49 z"
           id="path5"
           style="fill:#e6e6e6" />
        <path
           d="m 1672.4551,539.80037 c -13.37,-7.47 -28.97,-11.21 -46.8,-11.21 -16.39,0 -30.7,3.38 -42.92,10.14 -7.54,4.17 -13.8,9.74 -18.76,16.71 v -112.68 h -64.7 v 326.53 h 64.7 v -137.6 c 0,-9.2 1.79,-17.11 5.39,-23.72 3.59,-6.61 8.69,-11.79 15.31,-15.53 6.61,-3.73 14.09,-5.61 22.43,-5.61 8.34,0 16.18,1.87 22.65,5.61 6.47,3.74 11.5,8.92 15.1,15.53 3.59,6.62 5.39,14.52 5.39,23.72 v 137.6 h 64.7 v -151.4 c 0,-17.83 -3.74,-33.43 -11.21,-46.8 -7.48,-13.37 -17.9,-23.79 -31.27,-31.27 z"
           id="path6"
           style="fill:#e6e6e6" />
        <rect
           class="cls-3"
           x="1757.6451"
           y="447.92038"
           width="64.699997"
           height="64.699997"
           id="rect6"
           style="fill:#aa0000" />
        <rect
           x="1757.6451"
           y="533.76038"
           width="64.699997"
           height="235.50999"
           id="rect7"
           style="fill:#e6e6e6" />
        <path
           d="m 1951.5351,541.74037 c -9.07,5.36 -16.18,14.42 -21.35,27.17 v -35.15 h -60.39 v 235.51 h 64.7 v -126.82 c 0,-17.54 4.89,-31.12 14.67,-40.76 9.77,-9.63 22.57,-14.45 38.39,-14.45 h 20.27 v -56.08 h -13.8 c -16.39,0 -30.56,3.52 -42.49,10.57 z"
           id="path7"
           style="fill:#e6e6e6" />
        <path
           d="m 2254.1151,599.11037 c -5.18,-13.94 -12.72,-26.24 -22.64,-36.88 -9.92,-10.64 -22.07,-18.91 -36.45,-24.8 -14.38,-5.89 -30.92,-8.84 -49.61,-8.84 -22.43,0 -42.56,5.32 -60.39,15.96 -17.83,10.64 -31.99,25.17 -42.49,43.57 -10.5,18.41 -15.74,39.4 -15.74,62.98 0,23.58 5.03,43.42 15.1,62.11 10.06,18.7 24.3,33.58 42.71,44.64 18.4,11.07 40.12,16.61 65.13,16.61 16.1,0 30.91,-2.37 44.43,-7.12 13.51,-4.74 25.23,-11.43 35.15,-20.06 9.92,-8.63 17.18,-18.69 21.78,-30.19 l -51.76,-24.59 c -4.6,8.05 -11,14.38 -19.19,18.98 -8.2,4.6 -18.05,6.9 -29.55,6.9 -12.66,0 -23.44,-2.8 -32.35,-8.41 -8.92,-5.61 -15.53,-13.44 -19.84,-23.51 -2.22,-5.19 -3.72,-10.8 -4.49,-16.82 h 164.95 c 1.14,-3.16 1.94,-6.97 2.37,-11.43 0.43,-4.46 0.65,-8.98 0.65,-13.59 0,-16.39 -2.59,-31.55 -7.77,-45.51 z m -137.6,-10.57 c 8.05,-5.46 17.69,-8.2 28.9,-8.2 11.21,0 21.2,2.8 29.12,8.41 7.9,5.61 13.44,13.23 16.61,22.86 1.1,3.36 1.83,6.88 2.2,10.57 h -97.74 c 0.74,-3.34 1.67,-6.51 2.8,-9.49 4.02,-10.64 10.06,-18.69 18.12,-24.16 z"
           id="path8"
           style="fill:#e6e6e6" />
      </g>
      <g
         id="g11"
         style="fill:#b3b3b3">
        <path
           d="m 690.53,651.93 c 0,29.18 -11.83,55.6 -30.95,74.72 -19.12,19.12 -45.54,30.95 -74.72,30.95 -29.18,0 -55.59,-11.83 -74.71,-30.95 -19.12,-19.12 -30.95,-45.54 -30.95,-74.72 0,-58.36 -47.31,-105.67 -105.67,-105.67 -29.18,0 -55.6,11.83 -74.72,30.95 -19.12,19.12 -30.95,45.54 -30.95,74.72 0,29.18 -11.83,55.6 -30.95,74.72 -19.12,19.12 -45.54,30.95 -74.71,30.95 -29.17,0 -55.6,-11.83 -74.72,-30.95 -19.12,-19.12 -30.95,-45.54 -30.95,-74.72 0,-29.18 11.83,-55.6 30.95,-74.72 19.12,-19.12 45.54,-30.95 74.72,-30.95 29.18,0 55.59,-11.83 74.71,-30.95 19.12,-19.12 30.95,-45.54 30.95,-74.71 0,-29.17 11.83,-55.6 30.95,-74.72 19.12,-19.12 45.54,-30.95 74.72,-30.95 58.36,0 105.67,47.31 105.67,105.67 0,29.17 11.83,55.59 30.95,74.71 19.12,19.12 45.54,30.95 74.71,30.95 58.36,0 105.67,47.31 105.67,105.67 z"
           id="path9"
           style="fill:#ececec" />
        <rect
           class="cls-2"
           x="267.85999"
           y="757.59998"
           width="211.33"
           height="211.33"
           rx="105.67"
           ry="105.67"
           id="rect9"
           style="fill:#d40000" />
      </g>
    </g>
  </g>
</svg>
