<?xml version="1.0" encoding="UTF-8" standalone="no"?>
<svg
   version="1.0"
   width="95.936592pt"
   height="96.34938pt"
   viewBox="0 0 95.936592 96.34938"
   preserveAspectRatio="xMidYMid"
   id="svg10"
   sodipodi:docname="logo-white.svg"
   inkscape:version="1.2.2 (b0a8486541, 2022-12-01)"
   xmlns:inkscape="http://www.inkscape.org/namespaces/inkscape"
   xmlns:sodipodi="http://sodipodi.sourceforge.net/DTD/sodipodi-0.dtd"
   xmlns="http://www.w3.org/2000/svg"
   xmlns:svg="http://www.w3.org/2000/svg">
  <sodipodi:namedview
     id="namedview135"
     pagecolor="#505050"
     bordercolor="#eeeeee"
     borderopacity="1"
     inkscape:showpageshadow="0"
     inkscape:pageopacity="0"
     inkscape:pagecheckerboard="0"
     inkscape:deskcolor="#505050"
     inkscape:document-units="pt"
     showgrid="false"
     inkscape:zoom="5.892617"
     inkscape:cx="64.148068"
     inkscape:cy="64.572328"
     inkscape:window-width="1920"
     inkscape:window-height="963"
     inkscape:window-x="0"
     inkscape:window-y="0"
     inkscape:window-maximized="1"
     inkscape:current-layer="svg10" />
  <defs
     id="defs10" />
  <g
     transform="matrix(0.1,0,0,-0.1,-10.585432,102.54079)"
     fill="#000000"
     stroke="none"
     id="g10">
    <path
       d="m 420,838.99998 c 0,-32 -36,-85 -73,-108 -18,-10 -54,-22 -82,-26 -89,-13 -140,-54 -156,-125 C 90.469051,472.0218 155.56709,404.49526 258,395 c 91.39487,13.86488 142,37.99998 161,152.99998 12,75 22,94 67,128 50,39 124,43 179,12 47,-27 85,-94 85,-148 0,-43 36,-104 76,-129.99998 106.87585,-71.80721 297.4514,47.09728 222,197.99998 -29,59 -72,88 -142,96 -98,13 -153,67 -163,160 -23.62778,232.33982 -323,204.93262 -323,-25 z"
       id="path1"
       style="fill:#ffffff" />
    <path
       d="M 525,366 C 488,350 442,298 434,264 397,117 567,1 680,97 c 85,71 80,188 -11,256 -34,25 -105,31 -144,13 z"
       id="path10"
       style="fill:#ffffff" />
    <rect
       style="display:none;fill:#000000;fill-opacity:0.251773;stroke-width:6.79669"
       id="rect11"
       width="1086.2"
       height="1086.2"
       x="45"
       y="-1087.2709"
       transform="scale(1,-1)"
       ry="4.5134526e-13" />
  </g>
</svg>
