<?xml version="1.0" standalone="no"?>
<!DOCTYPE svg PUBLIC "-//W3C//DTD SVG 20010904//EN"
 "http://www.w3.org/TR/2001/REC-SVG-20010904/DTD/svg10.dtd">
<svg version="1.0" xmlns="http://www.w3.org/2000/svg"
 width="451.000000pt" height="109.000000pt" viewBox="0 0 451.000000 109.000000"
 preserveAspectRatio="xMidYMid meet">

<g transform="translate(0.000000,109.000000) scale(0.100000,-0.100000)"
fill="#000000" stroke="none">
<path d="M533 1019 c-63 -19 -113 -98 -113 -180 0 -32 -36 -85 -73 -108 -18
-10 -54 -22 -82 -26 -89 -13 -140 -54 -156 -125 -13 -57 3 -108 46 -150 34
-33 40 -35 103 -35 102 0 142 38 161 153 12 75 22 94 67 128 50 39 124 43 179
12 47 -27 85 -94 85 -148 0 -43 36 -104 76 -130 64 -43 172 -17 213 51 33 53
35 95 9 147 -29 59 -72 88 -142 96 -98 13 -153 67 -163 160 -12 118 -105 186
-210 155z"/>
<path d="M1550 631 c0 -185 -1 -200 -21 -225 -26 -33 -79 -35 -128 -5 -19 11
-37 16 -40 12 -3 -5 -19 -26 -36 -47 l-29 -38 29 -24 c39 -32 128 -58 172 -51
61 10 123 47 151 90 27 40 27 41 30 264 l3 223 -65 0 -66 0 0 -199z"/>
<path d="M2837 823 c-4 -3 -7 -132 -7 -285 l0 -278 65 0 64 0 3 113 3 112 105
0 105 0 3 -112 3 -113 64 0 65 0 0 285 0 285 -65 0 -64 0 -3 -112 -3 -113
-105 0 -105 0 -3 113 -3 112 -58 0 c-32 0 -61 -3 -64 -7z"/>
<path d="M3400 780 l0 -50 60 0 60 0 0 50 0 50 -60 0 -60 0 0 -50z"/>
<path d="M2300 730 c0 -49 -1 -50 -30 -50 -29 0 -30 -1 -30 -49 0 -47 2 -50
28 -53 l27 -3 5 -128 5 -129 33 -29 c31 -28 38 -30 100 -27 l67 3 3 53 3 52
-34 0 c-51 0 -58 16 -55 117 l3 88 43 3 42 3 0 50 0 49 -45 0 -45 0 0 50 0 50
-60 0 -60 0 0 -50z"/>
<path d="M1911 674 c-64 -23 -100 -53 -127 -106 -84 -166 62 -342 255 -307 30
6 69 21 88 33 l33 23 -34 32 c-32 31 -34 31 -77 20 -25 -7 -61 -9 -80 -5 -35
6 -79 38 -79 56 0 6 59 10 146 10 l146 0 -4 64 c-5 84 -37 134 -109 170 -60
30 -95 32 -158 10z m123 -115 c14 -11 26 -25 26 -30 0 -5 -39 -9 -87 -9 l-88
1 33 29 c39 36 78 39 116 9z"/>
<path d="M3855 683 c-47 -10 -72 -26 -95 -60 l-25 -37 -3 47 -3 47 -60 0 -59
0 0 -210 0 -210 60 0 60 0 0 78 c0 95 14 149 48 185 27 28 93 52 118 43 11 -4
14 8 14 59 0 69 -1 70 -55 58z"/>
<path d="M4118 676 c-113 -41 -169 -135 -147 -250 19 -101 111 -170 226 -168
59 0 143 27 156 49 4 6 -9 24 -27 42 -29 28 -36 31 -60 21 -62 -23 -166 5
-166 45 0 13 22 15 146 15 l147 0 -6 60 c-8 73 -24 107 -71 148 -57 49 -128
63 -198 38z m130 -123 l27 -28 -84 -3 c-46 -2 -86 0 -90 3 -3 4 7 18 22 31 39
34 90 32 125 -3z"/>
<path d="M3400 470 l0 -210 60 0 60 0 0 210 0 210 -60 0 -60 0 0 -210z"/>
<path d="M525 366 c-37 -16 -83 -68 -91 -102 -37 -147 133 -263 246 -167 85
71 80 188 -11 256 -34 25 -105 31 -144 13z"/>
</g>
</svg>
