<?xml version="1.0" encoding="UTF-8" standalone="no"?>
<svg
   version="1.0"
   width="451.000000pt"
   height="109.000000pt"
   viewBox="0 0 451.000000 109.000000"
   preserveAspectRatio="xMidYMid meet"
   id="svg138"
   sodipodi:docname="logo.svg"
   inkscape:version="1.2.2 (b0a8486541, 2022-12-01)"
   xmlns:inkscape="http://www.inkscape.org/namespaces/inkscape"
   xmlns:sodipodi="http://sodipodi.sourceforge.net/DTD/sodipodi-0.dtd"
   xmlns="http://www.w3.org/2000/svg"
   xmlns:svg="http://www.w3.org/2000/svg">
  <defs
     id="defs142" />
  <sodipodi:namedview
     id="namedview140"
     pagecolor="#505050"
     bordercolor="#eeeeee"
     borderopacity="1"
     inkscape:showpageshadow="0"
     inkscape:pageopacity="0"
     inkscape:pagecheckerboard="0"
     inkscape:deskcolor="#505050"
     inkscape:document-units="pt"
     showgrid="false"
     inkscape:zoom="2.090747"
     inkscape:cx="339.59154"
     inkscape:cy="98.290229"
     inkscape:window-width="1920"
     inkscape:window-height="963"
     inkscape:window-x="0"
     inkscape:window-y="0"
     inkscape:window-maximized="1"
     inkscape:current-layer="svg138" />
  <g
     transform="translate(0.000000,109.000000) scale(0.100000,-0.100000)"
     fill="#000000"
     stroke="none"
     id="g136">
    <path
       d="M533 1019 c-63 -19 -113 -98 -113 -180 0 -32 -36 -85 -73 -108 -18 -10 -54 -22 -82 -26 -89 -13 -140 -54 -156 -125 -13 -57 3 -108 46 -150 34 -33 40 -35 103 -35 102 0 142 38 161 153 12 75 22 94 67 128 50 39 124 43 179 12 47 -27 85 -94 85 -148 0 -43 36 -104 76 -130 64 -43 172 -17 213 51 33 53 35 95 9 147 -29 59 -72 88 -142 96 -98 13 -153 67 -163 160 -12 118 -105 186 -210 155z"
       id="path116" />
    <path
       d="M1550 631 c0 -185 -1 -200 -21 -225 -26 -33 -79 -35 -128 -5 -19 11 -37 16 -40 12 -3 -5 -19 -26 -36 -47 l-29 -38 29 -24 c39 -32 128 -58 172 -51 61 10 123 47 151 90 27 40 27 41 30 264 l3 223 -65 0 -66 0 0 -199z"
       id="path118" />
    <path
       d="M2837 823 c-4 -3 -7 -132 -7 -285 l0 -278 65 0 64 0 3 113 3 112 105 0 105 0 3 -112 3 -113 64 0 65 0 0 285 0 285 -65 0 -64 0 -3 -112 -3 -113 -105 0 -105 0 -3 113 -3 112 -58 0 c-32 0 -61 -3 -64 -7z"
       id="path120" />
    <path
       d="M3400 780 l0 -50 60 0 60 0 0 50 0 50 -60 0 -60 0 0 -50z"
       id="path122" />
    <path
       d="M2300 730 c0 -49 -1 -50 -30 -50 -29 0 -30 -1 -30 -49 0 -47 2 -50 28 -53 l27 -3 5 -128 5 -129 33 -29 c31 -28 38 -30 100 -27 l67 3 3 53 3 52 -34 0 c-51 0 -58 16 -55 117 l3 88 43 3 42 3 0 50 0 49 -45 0 -45 0 0 50 0 50 -60 0 -60 0 0 -50z"
       id="path124" />
    <path
       d="M1911 674 c-64 -23 -100 -53 -127 -106 -84 -166 62 -342 255 -307 30 6 69 21 88 33 l33 23 -34 32 c-32 31 -34 31 -77 20 -25 -7 -61 -9 -80 -5 -35 6 -79 38 -79 56 0 6 59 10 146 10 l146 0 -4 64 c-5 84 -37 134 -109 170 -60 30 -95 32 -158 10z m123 -115 c14 -11 26 -25 26 -30 0 -5 -39 -9 -87 -9 l-88 1 33 29 c39 36 78 39 116 9z"
       id="path126" />
    <path
       d="M3855 683 c-47 -10 -72 -26 -95 -60 l-25 -37 -3 47 -3 47 -60 0 -59 0 0 -210 0 -210 60 0 60 0 0 78 c0 95 14 149 48 185 27 28 93 52 118 43 11 -4 14 8 14 59 0 69 -1 70 -55 58z"
       id="path128" />
    <path
       d="M4118 676 c-113 -41 -169 -135 -147 -250 19 -101 111 -170 226 -168 59 0 143 27 156 49 4 6 -9 24 -27 42 -29 28 -36 31 -60 21 -62 -23 -166 5 -166 45 0 13 22 15 146 15 l147 0 -6 60 c-8 73 -24 107 -71 148 -57 49 -128 63 -198 38z m130 -123 l27 -28 -84 -3 c-46 -2 -86 0 -90 3 -3 4 7 18 22 31 39 34 90 32 125 -3z"
       id="path130" />
    <path
       d="M3400 470 l0 -210 60 0 60 0 0 210 0 210 -60 0 -60 0 0 -210z"
       id="path132" />
    <path
       d="M525 366 c-37 -16 -83 -68 -91 -102 -37 -147 133 -263 246 -167 85 71 80 188 -11 256 -34 25 -105 31 -144 13z"
       id="path134" />
  </g>
  <path
     style="fill:#1f1f1f;stroke-width:0.338208;fill-opacity:1"
     d="m 115.15973,92.676959 c -5.23995,-1.510723 -9.29907,-5.103815 -12.48332,-11.050102 -1.59112,-2.97126 -2.26863,-5.309584 -2.55025,-8.801714 -0.530256,-6.575299 -3.276935,-12.258187 -8.109724,-16.77902 -3.296311,-3.083537 -6.464898,-4.506655 -11.433738,-5.135268 -10.15928,-1.28526 -20.731092,5.10575 -23.382867,14.135713 -0.291004,0.990949 -0.848374,3.578238 -1.238594,5.749532 -2.054937,11.434207 -4.650532,16.566527 -9.753912,19.286599 -3.407303,1.816074 -5.593338,2.215565 -12.217449,2.232699 -7.178503,0.01857 -8.293192,-0.247203 -11.243492,-2.680746 -5.811645,-4.793716 -9.117397,-11.710625 -8.564382,-17.91999 0.518843,-5.825662 2.264327,-9.78017 5.905791,-13.379958 3.992538,-3.946843 6.506835,-4.995798 17.647271,-7.362366 6.798476,-1.444205 10.564767,-3.599613 14.143451,-8.094146 2.459301,-3.088679 3.771327,-5.976498 4.145266,-9.123886 0.672567,-5.660917 0.985717,-7.229056 2.007571,-10.053079 2.00796,-5.549274 6.062722,-10.547418 10.407629,-12.82907 1.318861,-0.692577 3.428165,-1.4188581 5.108405,-1.7589384 7.02635,-1.4221349 13.70491,0.6459791 18.546878,5.7433124 3.786571,3.986274 5.776132,8.313636 6.693956,14.55959 0.705133,4.798536 1.32828,7.102811 2.65453,9.815975 1.54071,3.15188 3.24809,5.280545 5.73485,7.14988 3.82123,2.872466 7.06857,4.121664 13.54347,5.209938 4.62543,0.777421 6.64751,1.363982 9.33736,2.708547 4.09188,2.045399 6.98633,5.111773 9.40546,9.964114 3.22271,6.464177 3.2146,11.249935 -0.0297,17.546504 -2.77076,5.377472 -8.0192,9.403947 -14.12821,10.83881 -2.6458,0.621436 -8.0348,0.635813 -10.14623,0.02706 z"
     id="path420"
     transform="scale(0.75)" />
  <path
     style="fill:#1f1f1f;fill-opacity:1;stroke-width:0.338208"
     d="m 114.20001,92.182905 c -4.24519,-1.571306 -7.52694,-4.404296 -10.35134,-8.935857 -1.94277,-3.117051 -3.06369,-6.239351 -3.53834,-9.855972 -0.627892,-4.78432 -0.736007,-5.300767 -1.577914,-7.53751 -1.010808,-2.685478 -2.763563,-5.809553 -3.39548,-6.052042 -0.256183,-0.09831 -0.389112,-0.302797 -0.295401,-0.454426 0.09371,-0.151628 -0.181591,-0.55421 -0.611784,-0.894633 -0.430194,-0.34042 -0.880047,-0.876415 -0.999671,-1.1911 -0.119624,-0.314689 -0.636866,-0.846937 -1.149426,-1.18278 -0.512557,-0.335841 -1.249495,-0.928191 -1.637639,-1.316335 -1.053378,-1.053379 -3.822319,-2.592596 -4.220829,-2.346303 -0.191574,0.1184 -0.34832,0.07416 -0.34832,-0.09833 0,-0.494811 -3.732451,-1.413387 -6.660487,-1.639181 -1.886384,-0.145467 -3.497596,-0.03819 -5.49016,0.365558 -3.260137,0.660588 -7.105183,2.111039 -7.360584,2.776601 -0.09663,0.251823 -0.299922,0.381079 -0.451757,0.28724 -0.409611,-0.253152 -4.144723,2.851433 -5.733105,4.765296 -0.760494,0.916327 -1.770074,2.480723 -2.243508,3.476437 -0.946948,1.99158 -2.645028,8.989653 -2.360964,9.729915 0.09837,0.256338 0.05088,0.466071 -0.10552,0.466071 -0.156401,0 -0.377853,0.584636 -0.492116,1.299188 -0.366178,2.289943 -1.923188,7.260335 -2.945123,9.401606 -1.912041,4.006317 -5.179032,6.766634 -9.616369,8.124967 -1.680492,0.514424 -3.191761,0.621183 -8.793401,0.621183 -6.490927,0 -6.832461,-0.03345 -8.455193,-0.827983 -2.489315,-1.218843 -6.835569,-5.730677 -8.386944,-8.706468 -0.697359,-1.337646 -1.506685,-3.087871 -1.798501,-3.889389 -0.510091,-1.401036 -1.173314,-8.728766 -0.790029,-8.728766 0.102628,0 0.372209,-0.898645 0.599068,-1.996991 0.678997,-3.28738 2.584434,-6.646841 5.323611,-9.386019 3.621602,-3.621603 6.404644,-4.866329 15.386366,-6.881628 2.687177,-0.602943 4.961874,-1.191715 5.054881,-1.308387 0.09301,-0.116671 0.540588,-0.253527 0.994624,-0.304129 1.458648,-0.162563 5.547487,-2.360721 7.349873,-3.951288 2.018103,-1.780934 4.933846,-5.517442 4.656126,-5.9668 -0.103755,-0.167885 -0.02206,-0.305245 0.181537,-0.305245 0.435638,0 1.560379,-2.49544 1.853564,-4.112467 0.112661,-0.621364 0.436917,-2.708991 0.720572,-4.63917 1.005573,-6.842572 3.220894,-11.804619 7.111494,-15.928858 4.08099,-4.326064 7.235518,-5.7163803 13.743605,-6.0573123 2.185891,-0.1145099 3.974164,-0.1109925 3.973941,0.00782 -2.27e-4,0.118809 0.570316,0.3201835 1.26787,0.4474989 2.816539,0.5140668 6.203707,2.5319164 9.041865,5.3865474 3.929564,3.952371 5.921104,8.100388 6.919226,14.411505 0.22064,1.395107 0.487543,2.764848 0.593121,3.04387 0.105579,0.279021 0.24025,0.887795 0.299274,1.352831 0.173483,1.366862 0.887077,3.720285 1.128057,3.720285 0.12226,0 0.24547,0.30783 0.27381,0.684068 0.0788,1.046574 1.96414,4.140688 3.69818,6.069351 1.51099,1.680592 4.51122,4.017289 4.51122,3.513522 0,-0.137495 0.19024,0.009 0.42276,0.325538 0.75116,1.022612 5.369,2.612912 10.56899,3.639775 5.57063,1.100054 7.66932,1.701919 9.99715,2.866997 6.33752,3.171932 11.51286,11.524895 11.51286,18.581663 0,7.820723 -5.48759,15.357763 -13.49754,18.538458 -2.38569,0.947343 -2.99334,1.042295 -7.33605,1.146331 -4.06465,0.09738 -4.99045,0.01884 -6.54015,-0.554753 z"
     id="path1306"
     transform="scale(0.75)" />
  <path
     style="fill:#1f1f1f;fill-opacity:1;stroke-width:0.338208"
     d="m 73.56018,136.29256 c -6.970901,-1.90787 -12.711434,-7.33002 -15.112702,-14.27451 -0.766249,-2.216 -0.912198,-3.21722 -0.925794,-6.35101 -0.01932,-4.45418 0.526373,-6.52855 2.534968,-9.63624 1.778847,-2.75222 5.013757,-6.138408 7.453013,-7.801546 3.061988,-2.08773 5.579741,-2.797492 9.939904,-2.802086 6.660021,-0.007 10.340478,1.436033 14.586682,5.719212 7.107534,7.16943 8.495909,16.86042 3.600939,25.13489 -2.437697,4.12068 -6.833153,7.86455 -11.205045,9.54399 -2.51306,0.96538 -8.164557,1.20829 -10.871965,0.4673 z"
     id="path1308"
     transform="scale(0.75)" />
  <path
     style="fill:#1f1f1f;fill-opacity:1;stroke-width:0.338208"
     d="m 191.08736,110.78679 c -6.35241,-1.49115 -11.18638,-3.69557 -15.28748,-6.97153 l -2.77381,-2.2157 4.43045,-5.727458 c 5.12586,-6.62645 4.27354,-6.296992 9.49359,-3.669655 3.97615,2.001263 7.05412,2.793788 9.97315,2.567916 4.06491,-0.31454 7.55241,-2.852802 8.71058,-6.3397 0.94546,-2.846532 1.16907,-8.847842 1.17468,-31.527213 l 0.006,-22.237158 h 8.65576 8.65576 l -0.19692,6.172291 c -0.1083,3.39476 -0.28158,13.781964 -0.38506,23.082677 -0.20613,18.526522 -0.59469,27.467097 -1.31102,30.166259 -0.92006,3.466808 -3.8832,7.602131 -7.56104,10.552101 -2.8305,2.27031 -5.82952,3.90888 -9.80875,5.35918 -2.92159,1.06482 -3.72747,1.21199 -7.18034,1.31127 -2.93455,0.0844 -4.55362,-0.0441 -6.59505,-0.52328 z"
     id="path1310"
     transform="scale(0.75)" />
  <path
     style="fill:#1f1f1f;fill-opacity:1;stroke-width:0.338208"
     d="m 261.60367,110.73673 c -8.75949,-0.94804 -16.79852,-5.60972 -21.82769,-12.657471 -6.4638,-9.058207 -6.50434,-21.356216 -0.10272,-31.162514 3.64577,-5.584766 7.91347,-8.674419 15.74927,-11.401881 6.80396,-2.368306 11.14903,-2.398067 16.83433,-0.115303 4.77456,1.917084 7.87547,3.888001 11.013,6.999764 4.72735,4.688533 6.36858,9.026145 7.06221,18.664802 0.19661,2.732064 0.35747,5.33675 0.35747,5.788192 v 0.820803 l -16.65673,0.196211 c -15.90609,0.18737 -21.27879,0.492954 -22.03937,1.253533 -1.10497,1.104975 3.35713,5.219729 7.58099,6.990855 2.01802,0.846186 2.559,0.920977 6.59505,0.911764 3.37632,-0.0077 5.06387,-0.180268 7.27146,-0.74355 5.34844,-1.364685 5.9856,-1.149534 11.02053,3.721305 l 3.18768,3.08379 -2.56767,1.78722 c -4.4064,3.06708 -10.51688,5.26001 -16.37582,5.87697 -3.5512,0.37395 -3.51223,0.37403 -7.10199,-0.0145 z m 7.10237,-34.789579 c 4.92126,-0.341727 6.08774,-0.584117 6.08774,-1.265016 0,-0.98132 -3.78535,-4.493677 -6.03824,-5.60277 -1.87221,-0.921687 -2.5564,-1.079593 -4.59141,-1.059661 -3.23565,0.03169 -5.2431,1.029512 -9.60167,4.772602 l -3.45396,2.966224 3.30289,0.188157 c 5.44834,0.310376 9.82951,0.310518 14.29465,4.64e-4 z"
     id="path1312"
     transform="scale(0.75)" />
  <path
     style="fill:#1f1f1f;fill-opacity:1;stroke-width:0.338208"
     d="m 317.00406,109.97003 c -1.80773,-0.50747 -1.69227,-0.42772 -6.08426,-4.20257 -3.24015,-2.78487 -3.27708,-2.83377 -3.45343,-4.57467 -0.16559,-1.634657 -1.23535,-29.213183 -1.22426,-31.561467 l 0.005,-1.054092 -2.94705,-0.380427 c -4.34334,-0.560668 -4.32441,-0.530297 -4.32441,-6.937911 0,-6.174317 0.0561,-6.299273 2.83162,-6.302024 2.41424,-0.0024 4.29966,-0.520967 4.62833,-1.272999 0.14068,-0.321892 0.32527,-3.210595 0.41022,-6.419341 l 0.15443,-5.834083 h 7.74042 7.74041 v 6.764155 6.764154 h 6.08774 6.08774 v 6.382379 6.382378 l -3.46663,0.223201 c -1.90664,0.12276 -4.47853,0.312707 -5.7153,0.422104 l -2.24868,0.198902 -0.23916,5.455548 c -0.13154,3.000552 -0.18499,8.195031 -0.11878,11.543287 0.10927,5.525807 0.19201,6.233125 0.8963,7.662783 1.11401,2.261348 2.33355,2.762944 7.12683,2.931266 l 3.84425,0.134999 -0.19801,1.906944 c -0.1089,1.048816 -0.29961,4.064274 -0.4238,6.701014 l -0.22579,4.79407 -1.56031,0.18311 c -3.99503,0.46881 -13.76858,0.52576 -15.3234,0.0893 z"
     id="path1314"
     transform="scale(0.75)" />
  <path
     style="fill:#1f1f1f;fill-opacity:1;stroke-width:0.338208"
     d="m 377.62199,79.563367 c 0.0117,-27.666848 0.28891,-43.28254 0.77697,-43.770597 0.47176,-0.471763 3.38167,-0.778891 9.38963,-0.991034 l 6.62848,-0.234054 0.22412,10.449192 c 0.12326,5.747056 0.31982,12.541853 0.43679,15.099549 l 0.21268,4.650356 h 14.10753 14.10753 l 0.22191,-9.21616 c 0.12205,-5.068889 0.31835,-11.841498 0.43622,-15.050244 l 0.21431,-5.834083 h 8.40691 8.40691 v 37.879265 37.879263 h -8.4055 -8.40549 l -0.21362,-5.66498 c -0.11749,-3.11574 -0.31442,-9.812249 -0.43763,-14.881137 l -0.22402,-9.216161 h -14.10753 -14.10753 l -0.21385,4.650356 c -0.11762,2.557696 -0.31403,9.254209 -0.43646,14.881142 l -0.22261,10.23078 h -8.40441 -8.40441 z"
     id="path1316"
     transform="scale(0.75)" />
  <path
     style="fill:#1f1f1f;fill-opacity:1;stroke-width:0.338208"
     d="m 453.36745,41.261342 v -6.59505 h 7.94789 7.94788 v 6.59505 6.595051 h -7.94788 -7.94789 z"
     id="path1318"
     transform="scale(0.75)" />
  <path
     style="fill:#1f1f1f;fill-opacity:1;stroke-width:0.338208"
     d="M 453.36745,82.691789 V 54.958755 h 7.94789 7.94788 v 27.733034 27.733031 h -7.94788 -7.94789 z"
     id="path1320"
     transform="scale(0.75)" />
  <path
     style="fill:#1f1f1f;fill-opacity:1;stroke-width:0.338208"
     d="M 481.4387,82.691789 V 54.958755 h 7.74037 7.74038 l 0.19548,1.437383 c 0.10752,0.790561 0.29753,3.530043 0.42225,6.087739 0.12472,2.557696 0.33931,4.650356 0.47687,4.650356 0.13756,0 1.36052,-1.607937 2.71769,-3.573193 4.042,-5.85306 6.67308,-7.612315 13.73884,-9.186385 6.37426,-1.420022 6.54099,-1.227198 6.49972,7.517358 -0.0158,3.348257 -0.13083,6.452435 -0.25564,6.898175 -0.21602,0.771555 -0.3726,0.813487 -3.26381,0.874058 -6.9517,0.145641 -13.67425,4.14137 -16.67654,9.912153 -2.69106,5.172567 -3.43985,10.026793 -3.43985,22.299811 v 8.54861 h -7.94788 -7.94788 z"
     id="path1322"
     transform="scale(0.75)" />
  <path
     style="fill:#1f1f1f;fill-opacity:1;stroke-width:0.338208"
     d="m 553.65921,110.38682 c -8.41626,-1.22615 -16.52617,-6.37369 -20.59539,-13.072347 -1.56314,-2.573206 -2.85179,-5.982204 -3.46131,-9.156561 -0.60931,-3.173312 -0.60221,-9.045261 0.0145,-11.954943 1.77482,-8.374263 7.26316,-15.010498 15.91209,-19.240132 4.64822,-2.273146 7.86444,-3.064715 12.51368,-3.079841 7.67411,-0.02497 13.79937,2.790437 19.84648,9.122198 4.25112,4.451225 5.89607,8.619604 6.86788,17.403469 0.2727,2.464812 0.5725,5.128298 0.66622,5.918859 l 0.17041,1.437382 -14.45191,0.01255 c -14.8406,0.01292 -22.48306,0.322609 -23.67276,0.959319 -0.96734,0.517705 -1.15569,1.274655 -0.62546,2.513651 0.94143,2.199886 3.73581,3.947361 8.32438,5.205673 3.32879,0.912843 10.62349,0.815193 13.3276,-0.178411 2.59064,-0.951913 3.53993,-0.925343 5.14208,0.143918 2.84839,1.900991 6.55769,6.155616 6.55769,7.521766 0,1.99969 -8.39017,5.3786 -16.06487,6.46968 -2.79823,0.39781 -7.64397,0.38566 -10.47127,-0.0263 z m 16.34195,-34.974907 c 0.0996,-0.09955 -1.01533,-1.384392 -2.47751,-2.8552 -3.56595,-3.586985 -5.64753,-4.573206 -9.65712,-4.575391 -2.57646,-0.0014 -3.1141,0.114737 -5.07312,1.095884 -4.2775,2.142331 -7.48531,6.145377 -5.31966,6.63842 0.98023,0.223163 22.2878,-0.0641 22.52741,-0.303713 z"
     id="path1324"
     transform="scale(0.75)" />
  <path
     style="fill:#1f1f1f;fill-opacity:1;stroke-width:0.0597872"
     d="m 318.96731,110.15685 c -2.25665,-0.1325 -3.20224,-0.44431 -4.57209,-1.50769 -0.89673,-0.69611 -4.76834,-4.0151 -5.5254,-4.73673 -0.96443,-0.9193 -1.18565,-1.30036 -1.32023,-2.27412 -0.10285,-0.74422 -0.2627,-4.086009 -0.56909,-11.897657 -0.0813,-2.071628 -0.16368,-4.055817 -0.18316,-4.409309 l -0.0354,-0.642713 h 8.03515 8.03515 l 0.0449,1.838458 c 0.0247,1.011151 0.041,2.020061 0.0362,2.242021 -0.005,0.22196 0.0129,0.403799 0.0393,0.404085 0.0264,2.87e-4 0.0524,0.343316 0.0579,0.762288 0.0178,1.376634 0.24312,2.337794 0.80401,3.429723 0.86028,1.674806 1.81882,2.292657 4.02106,2.591891 0.98779,0.134217 1.97193,0.195208 4.47555,0.277362 1.24057,0.04071 2.28531,0.09239 2.32165,0.114853 0.0476,0.0294 0.0314,0.382342 -0.0577,1.25992 -0.20237,1.99336 -0.34213,4.202788 -0.57194,9.041428 -0.0778,1.63877 -0.15235,2.99042 -0.1656,3.00367 -0.0753,0.0753 -2.79552,0.33447 -4.7087,0.44865 -1.33928,0.0799 -9.02384,0.12066 -10.16147,0.0539 z"
     id="path1326"
     transform="scale(0.75)" />
  <path
     style="fill:#1f1f1f;fill-opacity:1;stroke-width:0.0597872"
     d="m 318.96495,110.45677 c -2.26018,-0.18829 -3.60079,-0.71483 -5.36814,-2.10839 -0.27251,-0.21487 -1.78321,-1.52313 -3.35711,-2.90722 l -2.86163,-2.51654 -0.0377,-0.67305 c -0.0207,-0.37017 -0.17011,-4.170596 -0.33193,-8.445384 -0.16182,-4.274788 -0.30696,-8.081741 -0.32254,-8.459895 -0.0178,-0.431748 -0.0108,-0.587456 0.0187,-0.418511 0.0258,0.147973 0.065,0.793676 0.0871,1.434894 0.14512,4.220717 0.55103,13.505767 0.63773,14.588086 0.15985,1.9955 0.16999,2.00894 3.97243,5.26902 3.53461,3.03045 3.86608,3.26633 5.10859,3.63545 1.11678,0.33177 2.48995,0.41702 6.93854,0.43077 l 3.07904,0.01 -1.49468,0.0755 c -2.04294,0.1032 -5.30558,0.1493 -6.0684,0.0858 z"
     id="path1328"
     transform="scale(0.75)" />
</svg>
