<?xml version="1.0" encoding="UTF-8" standalone="no"?>
<svg
   version="1.0"
   width="359.07956pt"
   height="96.456619pt"
   viewBox="0 0 359.07956 96.456619"
   preserveAspectRatio="xMidYMid"
   id="svg10"
   sodipodi:docname="g10.svg"
   inkscape:version="1.3.2 (091e20e, 2023-11-25)"
   xmlns:inkscape="http://www.inkscape.org/namespaces/inkscape"
   xmlns:sodipodi="http://sodipodi.sourceforge.net/DTD/sodipodi-0.dtd"
   xmlns:xlink="http://www.w3.org/1999/xlink"
   xmlns="http://www.w3.org/2000/svg"
   xmlns:svg="http://www.w3.org/2000/svg">
  <sodipodi:namedview
     id="namedview1"
     pagecolor="#ffffff"
     bordercolor="#000000"
     borderopacity="0.25"
     inkscape:showpageshadow="2"
     inkscape:pageopacity="0.0"
     inkscape:pagecheckerboard="0"
     inkscape:deskcolor="#d1d1d1"
     inkscape:document-units="pt"
     inkscape:zoom="1.8350218"
     inkscape:cx="239.23421"
     inkscape:cy="64.304413"
     inkscape:window-width="1712"
     inkscape:window-height="1069"
     inkscape:window-x="0"
     inkscape:window-y="43"
     inkscape:window-maximized="0"
     inkscape:current-layer="svg10" />
  <defs
     id="defs10">
    <linearGradient
       id="linearGradient3"
       inkscape:collect="always">
      <stop
         style="stop-color:#000000;stop-opacity:1;"
         offset="0"
         id="stop3" />
      <stop
         style="stop-color:#e70606;stop-opacity:0;"
         offset="1"
         id="stop4" />
    </linearGradient>
    <linearGradient
       inkscape:collect="always"
       xlink:href="#linearGradient3"
       id="linearGradient4"
       x1="104.60652"
       y1="544.19714"
       x2="3695.4021"
       y2="544.19714"
       gradientUnits="userSpaceOnUse" />
  </defs>
  <g
     transform="matrix(0.1,0,0,-0.1,-10.460653,102.64802)"
     fill="#000000"
     stroke="none"
     id="g10"
     style="fill:#000000;fill-opacity:1">
    <path
       d="M 533,1019 C 470,1000 420,921 420,839 420,807 384,754 347,731 329,721 293,709 265,705 176,692 125,651 109,580 c -13,-57 3,-108 46,-150 34,-33 40,-35 103,-35 102,0 142,38 161,153 12,75 22,94 67,128 50,39 124,43 179,12 47,-27 85,-94 85,-148 0,-43 36,-104 76,-130 64,-43 172,-17 213,51 33,53 35,95 9,147 -29,59 -72,88 -142,96 -98,13 -153,67 -163,160 -12,118 -105,186 -210,155 z"
       id="path1"
       style="fill:#000000;fill-opacity:1" />
    <path
       d="M 525,366 C 488,350 442,298 434,264 397,117 567,1 680,97 c 85,71 80,188 -11,256 -34,25 -105,31 -144,13 z"
       id="path10"
       style="fill:#000000;fill-opacity:1" />
    <text
       xml:space="preserve"
       style="font-size:72px;fill:#000000;fill-opacity:1;stroke-width:0.75"
       x="134.79951"
       y="71.791008"
       id="text13"
       transform="matrix(9.9999998,0,0,-9.9999998,104.60653,1026.4802)"><tspan
         id="tspan13"
         style="font-style:normal;font-variant:normal;font-weight:800;font-stretch:normal;font-size:72px;font-family:'Plus Jakarta Sans';-inkscape-font-specification:'Plus Jakarta Sans Ultra-Bold';font-variant-ligatures:normal;font-variant-caps:normal;font-variant-numeric:normal;font-variant-east-asian:normal;fill:#000000;fill-opacity:1;stroke-width:0.75"
         x="134.79951"
         y="71.791008">jethire</tspan></text>
  </g>
</svg>
